<?xml version="1.0" encoding="UTF-8" standalone="no"?>
<!DOCTYPE svg PUBLIC "-//W3C//DTD SVG 1.1//EN" "http://www.w3.org/Graphics/SVG/1.1/DTD/svg11.dtd">
<svg width="100%" height="100%" viewBox="0 0 800 800" version="1.1" xmlns="http://www.w3.org/2000/svg" xmlns:xlink="http://www.w3.org/1999/xlink" xml:space="preserve" xmlns:serif="http://www.serif.com/" style="fill-rule:evenodd;clip-rule:evenodd;stroke-linejoin:round;stroke-miterlimit:2;">
    <g transform="matrix(1.61467,0,0,1.61467,-245.866,-361.348)">
        <g transform="matrix(0.498425,0,0,0.498425,200.63,201.054)">
            <clipPath id="_clip1">
                <rect x="0" y="0" width="800" height="800"/>
            </clipPath>
            <g clip-path="url(#_clip1)">
                <g transform="matrix(13.2025,0,0,10.6649,-324.233,-1362.63)">
                    <path d="M24.558,198.503L39.327,198.503L39.327,136.236L56.473,198.503L85.153,198.503L85.153,132.045L70.451,132.045L70.451,195.377L53.43,132.045L24.558,132.045L24.558,198.503Z" style="fill-rule:nonzero;"/>
                </g>
            </g>
        </g>
        <g transform="matrix(0.555289,0,0,0.555289,200.63,599.795)">
            <path d="M192.26,76.5C156.58,57.04 128.97,58.64 73.63,62.19C4.83,66.61 0,53.63 0,53.63C6.52,59.53 42.3,59.75 80.97,55.3C108.65,52.12 148.28,47.35 195.6,70.38C246.41,95.11 252.09,165.08 252.53,175.52C252.53,123.96 254.86,0 254.86,0C263.97,3.11 261.53,15.64 263.36,23.64C263.36,23.64 268.63,57.79 282.76,58.62C295.78,59.38 303.305,59.64 313.385,59.64C318.805,59.64 321.515,52.63 334.895,52.64C379.323,52.67 425.208,54.852 469.153,54.741C618.73,54.364 718.077,66.012 718.077,66.012C718.077,66.012 537.2,66.73 459.01,66.61C374.96,66.48 295.57,66.35 282.35,65.58C272.58,65.01 266.43,56.22 262.58,46.06C262.58,201.01 254.3,210.02 246.86,215.12C250.49,160.21 232.33,98.37 192.26,76.51L192.26,76.5Z" style="fill-rule:nonzero;"/>
        </g>
    </g>
</svg>
